inDegrees=no
num_controls=7
num_derivatives=13
num_iterations=87
num_multipliers=7
num_parameters=0
num_slacks=7
num_states=26
objective=0.453239
objective_accelerations=0.047427
objective_balance=0.001036
objective_effort=0.037128
objective_height=0.362035
objective_ligament=0.005613
solver_duration=1010.627323
status=Solve_Succeeded
success=true
DataType=double
version=3
OpenSimVersion=4.5
endheader
time	/jointset/ground_pelvis/pelvis_tilt/value	/jointset/ground_pelvis/pelvis_tx/value	/jointset/ground_pelvis/pelvis_ty/value	/jointset/hip_r/hip_flexion_r/value	/jointset/hip_r/hip_adduction_r/value	/jointset/hip_r/hip_rotation_r/value	/jointset/back/lumbar_extension/value	/jointset/patellofemoral_r/patellar_flexion_r/value	/jointset/knee_r/knee_flexion_r/value	/jointset/knee_r/knee_adduction_r/value	/jointset/knee_r/knee_rotation_r/value	/jointset/ankle_r/ankle_angle_r/value	/jointset/subtalar_r/subtalar_angle_r/value	/jointset/ground_pelvis/pelvis_tilt/speed	/jointset/ground_pelvis/pelvis_tx/speed	/jointset/ground_pelvis/pelvis_ty/speed	/jointset/hip_r/hip_flexion_r/speed	/jointset/hip_r/hip_adduction_r/speed	/jointset/hip_r/hip_rotation_r/speed	/jointset/back/lumbar_extension/speed	/jointset/patellofemoral_r/patellar_flexion_r/speed	/jointset/knee_r/knee_flexion_r/speed	/jointset/knee_r/knee_adduction_r/speed	/jointset/knee_r/knee_rotation_r/speed	/jointset/ankle_r/ankle_angle_r/speed	/jointset/subtalar_r/subtalar_angle_r/speed	/forceset/tau_hip_flexion_r	/forceset/tau_hip_adduction_r	/forceset/tau_hip_rotation_r	/forceset/tau_knee_flexion_r	/forceset/tau_ankle_angle_r	/forceset/tau_subtalar_angle_r	/forceset/tau_lumbar_extension	lambda_cid13_p0	lambda_cid14_p0	lambda_cid14_p1	lambda_cid14_p2	lambda_cid14_p3	lambda_cid14_p4	lambda_cid14_p5	/jointset/ground_pelvis/pelvis_tilt/accel	/jointset/ground_pelvis/pelvis_tx/accel	/jointset/ground_pelvis/pelvis_ty/accel	/jointset/hip_r/hip_flexion_r/accel	/jointset/hip_r/hip_adduction_r/accel	/jointset/hip_r/hip_rotation_r/accel	/jointset/back/lumbar_extension/accel	/jointset/patellofemoral_r/patellar_flexion_r/accel	/jointset/knee_r/knee_flexion_r/accel	/jointset/knee_r/knee_adduction_r/accel	/jointset/knee_r/knee_rotation_r/accel	/jointset/ankle_r/ankle_angle_r/accel	/jointset/subtalar_r/subtalar_angle_r/accel	gamma_cid13_p0	gamma_cid14_p0	gamma_cid14_p1	gamma_cid14_p2	gamma_cid14_p3	gamma_cid14_p4	gamma_cid14_p5
1.5	-0.07024697292076233	0.03208753788951969	0.8186567890688645	0.7967395824716866	-0.2186923762397555	-0.1406011400563988	-0.6251597033614309	0.9361118951802901	0.9361118951803133	-0.06521557434201121	0.1742826804377243	0.3047556032589677	0.149638151278724	0.4406552826763785	0.2154272862963097	0.5014425945500115	-1.965830244742625	0.03183005869937831	-0.1863373812051806	0.7904192261285138	-1.948715873206689	-1.948715873206748	0.4362591769856792	0.002682485776646653	-0.5277424418680515	-0.1680854056552327	-0.1509210926201541	0.009773152948580145	0.01898063355789266	-0.3128245468407148	0.0228437909705091	-0.005591715198822039	0.2076189782286766	-9.560631225369791	-35.29874316663479	-8.663512914459941	1.865360022729311	-2.93511441605218	-630.965619809801	59.2624914736414	0.1484104898294934	0.5487247056559253	-0.4978907590462526	-0.9796549612908556	-0.2020065608895303	-0.4791060616845906	1.719158858484783	-1.309521183302344	-1.309521183302333	0.5228715282224656	-0.059677367341153	-0.6509354903989297	-0.4112798539895155	1.069679709481866e-07	-1.311492076826599e-08	-1.582014100336429e-06	2.163887248662655e-07	1.649176436969778e-07	1.894996848696697e-07	-1.102721277836782e-06
1.51	-0.06583341815998148	0.03426899897400402	0.8236453116589614	0.7770344167754121	-0.2183849646388787	-0.1424883648800033	-0.6171709559268841	0.9165617194461322	0.9165617194461345	-0.0608257297476657	0.1743074684551876	0.2994461689836476	0.1479358957232823	0.4419830305949707	0.2208368679293941	0.4961563882254527	-1.974935691252519	0.02965020195423652	-0.1912177671350774	0.8072218966039538	-1.961066090657875	-1.961066090657887	0.4415805778946982	0.002324665059519824	-0.5340615178655416	-0.1723156226817246	-0.1439429867917955	0.008067099247655706	0.01869429800975039	-0.3088408675291995	0.02443621557661543	-0.006049880951603577	0.201135396276671	-10.58495761242168	-34.4927604494296	-8.530693732820401	1.626383863431361	-3.035007868857608	-626.2647446731712	59.20530632094355	0.114077155997471	0.5328569982177158	-0.559762633482292	-0.8358878816847182	-0.2260819255077509	-0.5087995346032862	1.644566515443027	-1.159819128678042	-1.159819128671109	0.5173634479244383	-0.01611423425224791	-0.6099393688747856	-0.4212547968044267	1.173764098718486e-07	9.457339757322107e-08	-7.821894308967276e-07	1.095763029577179e-06	2.804473236255516e-08	2.400634363806121e-07	-6.400712001566395e-07
1.52	-0.06140876187738665	0.0365037122960358	0.8285778167729487	0.757246216936857	-0.2180993729442777	-0.1444276524981278	-0.6090174327129116	0.8968956321169327	0.896895632116937	-0.05638655332908896	0.1743302223033617	0.2940760348054677	0.1461928655636092	0.4428755870385052	0.2260777338058007	0.4902390993280887	-1.982437073196258	0.02746607744188929	-0.1967499401034167	0.8233743820141814	-1.971898192215114	-1.97189819221508	0.44612554183105	0.002275651928232149	-0.5398824224410617	-0.1762403265012373	-0.1369648809635558	0.006361045546593242	0.01840796246189001	-0.3048571882176567	0.02602864018268874	-0.006508046704641844	0.1946518143245725	-11.61147995090755	-33.68750289830697	-8.396040453830878	1.384875405674661	-3.149623238505815	-621.5688079175328	59.21069869757258	0.06137219481804668	0.5149815543203209	-0.624107273607286	-0.6588420480596513	-0.2028601143306422	-0.6094634693730844	1.589121845442337	-1.005898004513223	-1.005898004513214	0.3675841336890154	0.002084149826659255	-0.5513012060050554	-0.350177212593683	1.245304108904404e-07	1.385261003885305e-07	-4.805887650383448e-07	1.435685941976566e-06	-2.475221733674661e-08	2.581134500019529e-07	-4.569331315739731e-07
1.53	-0.05697734698272251	0.03878996253864581	0.8334480558514991	0.7373909993626965	-0.2178358635934891	-0.1464238119781527	-0.6007056715698537	0.8771291288465048	0.8771291288465299	-0.0519040529637734	0.1743533252897948	0.2886502216600015	0.1444117452882185	0.4433367047673188	0.231141112289408	0.4837096788671483	-1.988341846637921	0.02519897260350354	-0.2023333649553622	0.8388637184738594	-1.981107318925489	-1.981107318925447	0.4504977893609087	0.002275324459063964	-0.5451965657948197	-0.1799938923725955	-0.1300253848877319	0.004472552238009103	0.01820994773456886	-0.3010724893574818	0.02770827952258001	-0.007050632377815016	0.1882182364758404	-12.63745752378209	-32.88055563325315	-8.306423583430973	1.160449377214158	-3.255539945876764	-617.1435920674879	59.19291592530116	0.02788877063880269	0.4973418992310636	-0.6821685022814757	-0.5165921017264279	-0.2440644303144908	-0.5102817691395304	1.511720327595364	-0.8341746040016795	-0.8341746040005884	0.4904301343197185	-0.01134736125265606	-0.5088910310446522	-0.3894736966487093	1.282265716348952e-07	1.147597117072771e-07	-7.083511029851069e-07	1.20244175004496e-06	1.178154220126655e-08	2.416176171155924e-07	-5.70776572657372e-07
1.54	-0.05254343946902772	0.04112591174686191	0.8382500389114517	0.717484674632205	-0.2175961110434357	-0.1484713056619058	-0.5922424409059284	0.8572793833890565	0.8572793833890653	-0.04737415310882999	0.1743743737683137	0.2831737830548021	0.1425927838696644	0.4433741108451689	0.2360175269270215	0.4765878956085012	-1.992658504459856	0.02271471729627164	-0.2070167808486722	0.8536682861881414	-1.988546629623946	-1.988546629623896	0.4556054397581988	0.001864750351324595	-0.5500075143879173	-0.1838085551336283	-0.1230858888119894	0.002584058929354446	0.01801193300711674	-0.2972877904973215	0.02938791886246005	-0.007593218051093021	0.1817846586270402	-13.65911487953922	-32.07513879890608	-8.21658431187147	0.9354263329315016	-3.369895164099106	-612.7322601921284	59.22504263271142	-0.02337013537460458	0.4775887851215038	-0.7425798331486212	-0.3412189241137888	-0.2462902080998657	-0.4294616776459917	1.45216809636314	-0.6519348021296043	-0.6519348021296052	0.5146647071752518	-0.07996517788761223	-0.4506622538730889	-0.3623965905285919	1.256231714618266e-07	9.261144127902939e-08	-8.736440464647467e-07	9.990441892017863e-07	3.926860990469666e-08	2.349329199195789e-07	-6.655352544179322e-07
1.55	-0.04811131704226711	0.04350965878526485	0.8429779168852474	0.6975431922158448	-0.2173817790247	-0.150564004307419	-0.5836345651160665	0.8373638092016211	0.8373638092016101	-0.04279259563171155	0.1743903386702668	0.2776519627151107	0.1407362967254861	0.4429751693349447	0.2406971801612129	0.4688960993253831	-1.995362483972798	0.02015946713081196	-0.2116064730228861	0.86779454285271	-1.994289781619114	-1.994289781619107	0.4605798602652225	0.00135987765945726	-0.5542524919133656	-0.1874210640897781	-0.1162147237319087	0.0006645437706036714	0.01779490665410391	-0.2936911569862563	0.03115308070073478	-0.008214965189624612	0.1754405970552065	-14.67209376434519	-31.27071814008194	-8.169336846414343	0.726374982435426	-3.495106027821272	-608.6462581174372	59.25037577606759	-0.05943284369450299	0.4579616660209333	-0.7961710759568508	-0.1936562042403211	-0.2589407477837615	-0.486076518318983	1.37600511164868	-0.4937635181463126	-0.4937635181527865	0.4697735457548318	-0.03088413668964857	-0.3957698663053184	-0.3505794438196011	1.157615815359596e-07	7.232752449011417e-08	-9.669613832757497e-07	8.300351380909346e-07	5.633231527697734e-08	2.395523573233126e-07	-7.383049743500053e-07
1.56	-0.04368543936758013	0.0459391639707003	0.8476261385862	0.6775829362564734	-0.2171927591730294	-0.1527050705808818	-0.574888796627531	0.8173991518702405	0.8173991518702349	-0.03816510538488972	0.1744022276809134	0.2720908217272824	0.1388457042126122	0.4421251604308004	0.2451691563335262	0.4606566410398151	-1.996413213059976	0.0176522838848076	-0.2166903064374981	0.8812468259230876	-1.998363258411715	-1.998363258411751	0.464791993703825	0.001049572093445601	-0.5578716440157973	-0.1906296288723897	-0.109343558651896	-0.001254971388256383	0.01757788030129589	-0.2900945234751655	0.03291824253898703	-0.008836712328333114	0.1690965354833219	-15.67357703153063	-30.46828753034662	-8.122792777648606	0.5178415153519221	-3.626526933998739	-604.5809310222925	59.31905646246278	-0.1135836141585268	0.4360533727458379	-0.852112233638605	-0.01056883896081302	-0.2366768242088297	-0.5282899257256076	1.317373377524981	-0.3179997616162695	-0.3179997616162694	0.362207293490968	-0.04105175271653603	-0.3254971692698369	-0.281607755820944	1.152159031757825e-07	5.68526032028031e-08	-1.109907379737991e-06	6.745266109321655e-07	7.754765571275924e-08	2.378502896063236e-07	-8.116604055284556e-07
1.57	-0.03927041690189402	0.0484122284585925	0.8521893365615681	0.6576205297862523	-0.2170287004958024	-0.1548983218099745	-0.5660121734804054	0.79740208355903	0.7974020835590278	-0.03349810652805429	0.1744115326138415	0.2664963918530449	0.1369247072999527	0.4407946124652461	0.249396510493054	0.451901670671581	-1.99578072686956	0.01514646497911838	-0.2218633421780889	0.8939347135653577	-2.000763982337952	-2.000763982337936	0.4686483585176795	0.0007508416484292273	-0.5609329679778887	-0.1935489147338684	-0.1023284522092343	-0.003272205265063761	0.01740381941393101	-0.2868464555936692	0.0347461863123427	-0.009575441855590019	0.1626320205431002	-16.66140925720282	-29.68544901153429	-8.141695702599273	0.3325481373442324	-3.631213543299057	-600.8864233858776	59.35350801864902	-0.1554964426074276	0.4090156557201629	-0.899337399410171	0.1432641957646297	-0.2595316583432428	-0.4971500198238448	1.223032966951159	-0.1581720255056715	-0.1581720254980187	0.4032431186964165	-0.03331087866662639	-0.2841941187986098	-0.2941346063653401	1.263151142727176e-07	4.738892629249715e-08	-1.314889200764278e-06	5.358937387134995e-07	1.039525399779176e-07	2.282463404884316e-07	-8.857479757648775e-07
1.58	-0.03487124112683884	0.05092615433171283	0.8566625552410561	0.6376730695474707	-0.2168900994545612	-0.1571403713207965	-0.5570129641549834	0.7773895953450863	0.77738959534509	-0.02879136561443475	0.1744160448046448	0.2608737999173652	0.1349751084076657	0.4389558223055626	0.253341433379153	0.4426607818636716	-1.993423966770264	0.01256075668970886	-0.2264499627826021	0.9057640615825636	-2.001447238959315	-2.001447238959248	0.472740405066107	9.102367250739095e-05	-0.5635040563047724	-0.1963500247975135	-0.09531334576661483	-0.005289439141992347	0.01722975852661817	-0.2835983877121579	0.03657413008567119	-0.01031417138303701	0.1561675056028523	-17.63386508505429	-28.90403082510577	-8.161881822441236	0.1486401587318214	-3.641602351732431	-597.2063688860652	59.42183459407286	-0.2152320529843136	0.3795671180600493	-0.9492959215736732	0.3342859428152025	-0.2526547009529104	-0.4110068985101027	1.145665452512223	0.02549369935852294	0.02549369935852295	0.4093436404055242	-0.1132692588976905	-0.2274500422283579	-0.2579725962542088	1.289372745677815e-07	3.512069009679661e-08	-1.466633551555855e-06	3.698054161174846e-07	1.246311767583254e-07	2.241210537859277e-07	-9.305559737193999e-07
